<?xml version="1.0" encoding="utf-8"?>
<!-- Generator: Adobe Illustrator 27.2.0, SVG Export Plug-In . SVG Version: 6.00 Build 0)  -->
<svg version="1.1" id="Layer_1" xmlns="http://www.w3.org/2000/svg" xmlns:xlink="http://www.w3.org/1999/xlink" x="0px" y="0px"
	 viewBox="0 0 725.7 772.4" style="enable-background:new 0 0 725.7 772.4;" xml:space="preserve">
<style type="text/css">
	.st0{stroke:#FFFFFF;stroke-width:1.144;stroke-miterlimit:3;stroke-opacity:0;}
	.st1{stroke:#000000;stroke-miterlimit:10;}
	.st2{fill:none;stroke:#000000;stroke-width:2.5;stroke-linecap:round;stroke-linejoin:round;stroke-miterlimit:10;}
	.st3{fill:#FFFFFF;stroke:#000000;stroke-width:2;stroke-linecap:round;stroke-linejoin:round;}
	.st4{opacity:0.995;stroke:#000000;stroke-miterlimit:10;enable-background:new    ;}
</style>
<path id="path2587_8_" class="st0" d="M468.2,715.7c-2.2,0-4.1,1.8-4.1,4c0,2.3,1.8,4,4.1,4s4.1-1.8,4.1-4
	C472.2,717.5,470.4,715.7,468.2,715.7z M243.7,715.9V750h26.3c8.8-0.7,11.1-3.8,11.8-11.8v-10.3c-0.7-6.6-1.2-12-11.8-12
	L243.7,715.9z M286.1,715.9V750h8.9v-11.4h14c3.5,0.4,3.9,3.7,3.9,7.3c0,0-0.1,3.4,0.9,4h8.6c0,0-0.7-1.9-1-5.8
	c0.2-5.7-1.3-7.1-3.8-8.8l0.1-0.3c2.2-1.1,3.9-2.7,4.2-7V726c0-4.6-0.4-10.2-8.9-10.2L286.1,715.9L286.1,715.9z M326.7,715.9V750
	h32.2v-7.4h-23.3v-7.1h21.7v-6.3h-21.7v-6.7h22.7v-6.6H326.7L326.7,715.9z M363,715.9V750h8.5v-24.8h0.4l12,24.8h6.6l11.6-24.8h0.4
	V750h8.7v-34.1h-14l-10.1,21.9H387l-10.6-21.9H363L363,715.9L363,715.9z M417.1,715.9V750h32.2v-7.4h-23.3v-7.1h21.7v-6.3h-21.7
	v-6.7h22.7v-6.6H417.1L417.1,715.9L417.1,715.9z M453.1,715.9V750H482v-7.4h-20v-26.7L453.1,715.9L453.1,715.9z M468.2,716.6
	c1.8,0,3.1,1.4,3.1,3.1c0,1.8-1.4,3.1-3.1,3.1c-1.8,0-3.1-1.4-3.1-3.1C464.9,718,466.4,716.6,468.2,716.6z M466.4,717.6v4.4h0.9
	v-1.8h0.8l1,1.8h1l-1-1.9c0.7-0.1,1.2-0.4,1.2-1.1c0-1.1-0.7-1.3-1.8-1.3L466.4,717.6L466.4,717.6z M467.3,718.3h1c0.4,0,1,0,1,0.5
	s-0.3,0.6-0.7,0.6h-1.3L467.3,718.3L467.3,718.3z M252.5,722.6h15.4c4.4,0,5.3,3,5.3,7.9v4.6c0,4.9-1.1,7.4-5.3,7.4h-15.4V722.6z
	 M295,722.6h13.8c2.7,0,4.2,0.5,4.2,3.5v1.1c0,2.5-1,4.3-3.4,4.3h-14.6L295,722.6L295,722.6z"/>
<g id="g322_1_" transform="translate(-903.13705,-27.275951)">
	<g id="g320_1_">
		<path id="path314_1_" class="st1" d="M1577.4,746.1c-4.8,0-9.7,0-14.5,0c-0.9,0-2-0.1-2.8-0.4c-3.1-0.9-4.7-3.5-3.6-6.7
			c0.3-1.1,0.9-2.1,1.5-3.1c4.7-7.9,9.3-15.7,14-23.6c0.5-0.8,1-1.6,1.8-2.3c2.4-2.4,5.8-2.3,8,0.3c0.9,1,1.5,2.1,2.1,3.3
			c4.5,7.7,9.1,15.2,13.5,23c0.5,1,1,2.1,1.3,3.1c0.6,3.3-1.4,5.7-4.8,6.3c-0.6,0.1-1.4,0.1-2,0.1
			C1587,746.1,1582.2,746.1,1577.4,746.1z M1577.4,744.6c4.8,0,9.6,0,14.3,0c0.9,0,1.8-0.1,2.5-0.3c2.1-0.6,3.1-2.3,2.6-4.3
			c-0.1-0.8-0.5-1.6-0.9-2.3c-4.7-8-9.4-16-14.1-24c-0.5-0.9-1.1-1.9-2-2.5c-1.5-1.5-3.6-1.4-5.2,0.1c-0.6,0.6-1.1,1.3-1.5,2
			c-4.8,8-9.7,16.2-14.3,24.4c-0.4,0.8-0.8,1.5-0.9,2.3c-0.5,2.1,0.4,3.8,2.5,4.5c0.9,0.3,1.8,0.4,2.8,0.4
			C1568,744.6,1572.7,744.6,1577.4,744.6L1577.4,744.6z"/>
		<g>
			<path id="path316_1_" class="st1" d="M1578.8,734.2c-0.8,0-1.6,0-2.2,0c-0.1,0-0.3,0-0.4-0.1c-0.1-5.6-0.1-11.3-0.3-16.9
				c1.1,0,2.1,0,3.1,0C1579.1,722.9,1579,728.6,1578.8,734.2z"/>
			<path id="path318_1_" class="st1" d="M1579.6,738.9c0,1.1-1,2.1-2.1,2.2c-1.2,0-2.1-1-2.2-2.1c0-1.1,1-2.1,2.1-2.2
				C1578.7,736.8,1579.6,737.9,1579.6,738.9z"/>
		</g>
	</g>
</g>
<g id="g1_00000163786238125436416280000017338626775598271143_">
	<path id="path324_00000127034488231531428750000002446769713704370324_" class="st2" d="M68,709.5l-13.6-23.9
		c-2.5-4.5-6.7-4.5-9.2,0l-13.6,23.9c-2.5,4.5-0.5,8,4.5,8h27.3c2.4,0,4.1-0.8,5-2.1C69.4,713.9,69.3,711.8,68,709.5L68,709.5z"/>
	<g>
		<path id="path326_00000149369511379752953570000010480528724705164716_" class="st3" d="M49.9,708.2c0,0,1.1-3.4,1.1-4.7
			s-2.3-3.3-2.3-4.7c0-1.3,1.1-4.7,1.1-4.7"/>
		<path id="path328_00000006690325231393448450000014231677547477607577_" class="st3" d="M53.7,708.2c0,0,1.1-3.4,1.1-4.7
			s-2.3-3.3-2.3-4.7c0-1.3,1.1-4.7,1.1-4.7"/>
		<path id="path330_00000114781911268906734900000015939884381953062057_" class="st3" d="M46.2,708.2c0,0,1.1-3.4,1.1-4.7
			s-2.3-3.3-2.3-4.7c0-1.3,1.1-4.7,1.1-4.7"/>
		<path id="path332_00000153692065347113824610000006072028122427637928_" class="st4" d="M56,710.4H44c-0.3,0-0.5,0.3-0.5,0.8v1
			c0,0.4,0.3,0.8,0.5,0.8h12.1c0.3,0,0.5-0.3,0.5-0.8v-1C56.5,710.8,56.2,710.4,56,710.4L56,710.4z"/>
	</g>
</g>
</svg>
